<svg width="236" height="124" fill="none" xmlns="http://www.w3.org/2000/svg"><mask id="a" fill="#fff"><path d="M0 40.237C0 15.513 22.206-3.29 46.591.784l38.452 6.424a200 200 0 0 0 65.914 0L189.409.784C213.794-3.29 236 15.514 236 40.237v43.526c0 24.724-22.205 43.527-46.591 39.453l-38.452-6.424a199.972 199.972 0 0 0-65.914 0l-38.452 6.424C22.206 127.29 0 108.487 0 83.763V40.237Z"/></mask><path d="m46.592 123.216-.33-1.973.33 1.973Zm142.817 0-.33 1.973.33-1.973ZM234 40.237v43.526h4V40.237h-4ZM2 83.763V40.237h-4v43.526h4ZM46.262 2.757 84.713 9.18l.66-3.946L46.92-1.189l-.66 3.946ZM151.287 9.18l38.451-6.424-.659-3.946-38.451 6.424.659 3.946Zm38.451 112.062-38.451-6.424-.659 3.946 38.451 6.424.659-3.946Zm-105.025-6.424-38.451 6.424.659 3.946 38.451-6.424-.659-3.946Zm66.574 0a202 202 0 0 0-66.574 0l.66 3.946a197.951 197.951 0 0 1 65.255 0l.659-3.946ZM84.713 9.181a202.003 202.003 0 0 0 66.574 0l-.659-3.946a198.002 198.002 0 0 1-65.256 0l-.659 3.946ZM-2 83.763c0 25.96 23.316 45.703 48.921 41.426l-.66-3.946C23.096 125.114 2 107.251 2 83.763h-4Zm236 0c0 23.488-21.095 41.351-44.262 37.48l-.659 3.946C214.684 129.466 238 109.723 238 83.763h-4Zm4-43.526c0-25.96-23.316-45.703-48.921-41.426l.659 3.946C212.905-1.113 234 16.749 234 40.237h4Zm-236 0C2 16.75 23.095-1.113 46.262 2.757l.659-3.946C21.316-5.466-2 14.277-2 40.237h4Z" fill="#fff" mask="url(#a)"/></svg>